<svg width="193" height="132" viewBox="0 0 193 132" fill="none" xmlns="http://www.w3.org/2000/svg">
<path d="M185.401 94.8246H6.86902C7.92398 98.733 8.49203 103.619 8.49203 108.748C8.49203 113.878 7.92398 118.641 6.86902 122.672H185.319C184.264 118.764 183.696 113.878 183.696 108.748C183.778 103.496 184.346 98.733 185.401 94.8246Z" fill="#CECECE"/>
<path d="M191 88.7177H2.81152V96.0459H191V88.7177Z" fill="#5F5AFF"/>
<path d="M190.188 87.4963H2V94.8246H190.188V87.4963Z" stroke="#1F3969" stroke-width="4" stroke-miterlimit="10" stroke-linecap="round" stroke-linejoin="round"/>
<path d="M190.188 122.672H2V130H190.188V122.672Z" fill="#F6F9FD"/>
<path d="M190.188 122.672H2V130H190.188V122.672Z" fill="#5F5AFF"/>
<path d="M190.188 122.672H2V130H190.188V122.672Z" stroke="#1F3969" stroke-width="4" stroke-miterlimit="10" stroke-linecap="round" stroke-linejoin="round"/>
<path d="M8.89783 108.138H183.778" stroke="#1F3969" stroke-width="4" stroke-miterlimit="10" stroke-linecap="round" stroke-linejoin="round"/>
<path d="M8.89783 117.909H183.778" stroke="#1F3969" stroke-width="4" stroke-miterlimit="10" stroke-linecap="round" stroke-linejoin="round"/>
<path d="M185.401 99.7101H6.86902C7.92398 103.618 8.49203 108.504 8.49203 113.634C8.49203 118.764 7.92398 123.527 6.86902 127.558H185.319C184.264 123.649 183.696 118.764 183.696 113.634C183.778 108.382 184.346 103.618 185.401 99.7101Z" stroke="#1F3969" stroke-width="4" stroke-miterlimit="10" stroke-linecap="round" stroke-linejoin="round"/>
<path d="M58.0592 43.5138C51.6796 43.5138 46.5626 35.5578 46.5626 25.8679C46.5626 16.178 51.746 8.22205 58.0592 8.22205H123.184V43.6158H58.0592V43.5138Z" fill="#CECECE"/>
<path d="M126.972 49.6338H58.0592C49.4866 49.6338 42.5754 38.9239 42.5754 25.868C42.5754 12.7101 49.5531 2.10217 58.0592 2.10217H126.972V49.6338Z" fill="white"/>
<path d="M53.8061 20.3599H123.184" stroke="#1F3969" stroke-width="4" stroke-miterlimit="10" stroke-linecap="round" stroke-linejoin="round"/>
<path d="M53.8061 31.1719H123.184" stroke="#1F3969" stroke-width="4" stroke-miterlimit="10" stroke-linecap="round" stroke-linejoin="round"/>
<path d="M58.0592 43.5138C51.6796 43.5138 46.5626 35.5578 46.5626 25.8679C46.5626 16.178 51.746 8.22205 58.0592 8.22205H123.184V43.6158H58.0592V43.5138Z" stroke="#1F3969" stroke-width="4" stroke-miterlimit="10" stroke-linecap="round" stroke-linejoin="round"/>
<path d="M58.0592 43.5139C51.6796 43.5139 46.5626 35.5579 46.5626 25.868C46.5626 16.1781 51.746 8.22213 58.0592 8.22213H124.314L126.972 2.10217H58.0592C49.4866 2.10217 42.5754 12.8121 42.5754 25.868C42.5754 39.0259 49.5531 49.6338 58.0592 49.6338H126.972L124.314 43.5139H58.0592Z" fill="#FF3E3E"/>
<path d="M58.0592 43.5139C51.6796 43.5139 46.5626 35.5579 46.5626 25.868C46.5626 16.1781 51.746 8.22213 58.0592 8.22213H124.314L126.972 2.10217H58.0592C49.4866 2.10217 42.5754 12.8121 42.5754 25.868C42.5754 39.0259 49.5531 49.6338 58.0592 49.6338H126.972L124.314 43.5139H58.0592Z" stroke="#1F3969" stroke-width="4" stroke-miterlimit="10" stroke-linecap="round" stroke-linejoin="round"/>
<path opacity="0.28" d="M112.153 2H99.9252V49.6337H112.153V2Z" fill="#1F3969" stroke="#1F3969" stroke-width="4" stroke-miterlimit="10" stroke-linecap="round" stroke-linejoin="round"/>
<path d="M178.029 85.0535H17.4868C14.3588 85.0535 11.7381 82.3956 11.7381 79.0289V56.8796C11.7381 53.6015 14.2743 50.855 17.4868 50.855H178.029C181.157 50.855 183.778 53.5129 183.778 56.8796V79.0289C183.778 82.3956 181.241 85.0535 178.029 85.0535Z" fill="#50B56F"/>
<path d="M178.029 85.0535H17.4868C14.3588 85.0535 11.7381 82.3956 11.7381 79.0289V56.8796C11.7381 53.6015 14.2743 50.855 17.4868 50.855H178.029C181.157 50.855 183.778 53.5129 183.778 56.8796V79.0289C183.778 82.3956 181.241 85.0535 178.029 85.0535Z" stroke="#1F3969" stroke-width="4" stroke-miterlimit="10" stroke-linecap="round" stroke-linejoin="round"/>
<path d="M43.684 64.897H47.236C47.756 64.897 48.196 64.997 48.556 65.197C48.916 65.389 49.18 65.649 49.348 65.977C49.524 66.297 49.612 66.649 49.612 67.033C49.612 67.521 49.484 67.917 49.228 68.221C48.972 68.517 48.68 68.709 48.352 68.797V68.869C48.592 68.901 48.84 68.993 49.096 69.145C49.36 69.289 49.588 69.509 49.78 69.805C49.972 70.093 50.068 70.449 50.068 70.873C50.068 71.273 49.976 71.661 49.792 72.037C49.616 72.405 49.332 72.709 48.94 72.949C48.556 73.189 48.072 73.309 47.488 73.309H43.684V64.897ZM46.732 68.389C47.084 68.389 47.388 68.301 47.644 68.125C47.908 67.949 48.04 67.669 48.04 67.285C48.04 66.909 47.912 66.637 47.656 66.469C47.4 66.301 47.092 66.217 46.732 66.217H45.316V68.389H46.732ZM47.104 71.977C47.472 71.977 47.796 71.885 48.076 71.701C48.356 71.517 48.496 71.209 48.496 70.777C48.496 70.353 48.356 70.049 48.076 69.865C47.796 69.673 47.472 69.577 47.104 69.577H45.316V71.977H47.104ZM51.1243 66.961H52.7803V73.297H51.1243V66.961ZM51.9403 65.869C51.6763 65.869 51.4563 65.781 51.2803 65.605C51.1043 65.421 51.0163 65.201 51.0163 64.945C51.0163 64.681 51.1043 64.461 51.2803 64.285C51.4563 64.109 51.6763 64.021 51.9403 64.021C52.2043 64.021 52.4243 64.113 52.6003 64.297C52.7763 64.473 52.8643 64.689 52.8643 64.945C52.8643 65.201 52.7763 65.421 52.6003 65.605C52.4243 65.781 52.2043 65.869 51.9403 65.869ZM56.2125 73.345C55.6205 73.345 55.1805 73.257 54.8925 73.081C54.6125 72.897 54.4365 72.673 54.3645 72.409C54.3005 72.137 54.2685 71.793 54.2685 71.377V64.297H55.9245V71.041C55.9245 71.329 55.9365 71.545 55.9605 71.689C55.9925 71.825 56.0725 71.937 56.2005 72.025C56.3365 72.105 56.5485 72.145 56.8365 72.145C56.9325 72.145 57.0445 72.137 57.1725 72.121V73.273C56.7645 73.321 56.4445 73.345 56.2125 73.345ZM60.0623 73.345C59.4703 73.345 59.0303 73.257 58.7423 73.081C58.4623 72.897 58.2863 72.673 58.2143 72.409C58.1503 72.137 58.1183 71.793 58.1183 71.377V64.297H59.7743V71.041C59.7743 71.329 59.7863 71.545 59.8103 71.689C59.8423 71.825 59.9223 71.937 60.0503 72.025C60.1863 72.105 60.3983 72.145 60.6863 72.145C60.7823 72.145 60.8943 72.137 61.0223 72.121V73.273C60.6143 73.321 60.2943 73.345 60.0623 73.345ZM62.0762 66.961H63.7322V73.297H62.0762V66.961ZM62.8922 65.869C62.6282 65.869 62.4082 65.781 62.2322 65.605C62.0562 65.421 61.9682 65.201 61.9682 64.945C61.9682 64.681 62.0562 64.461 62.2322 64.285C62.4082 64.109 62.6282 64.021 62.8922 64.021C63.1562 64.021 63.3762 64.113 63.5522 64.297C63.7282 64.473 63.8162 64.689 63.8162 64.945C63.8162 65.201 63.7282 65.421 63.5522 65.605C63.3762 65.781 63.1562 65.869 62.8922 65.869ZM67.8863 73.393C67.2223 73.393 66.6623 73.245 66.2063 72.949C65.7583 72.645 65.4223 72.245 65.1983 71.749C64.9743 71.253 64.8623 70.709 64.8623 70.117C64.8623 69.525 64.9703 68.981 65.1863 68.485C65.4103 67.981 65.7503 67.577 66.2063 67.273C66.6623 66.969 67.2223 66.817 67.8863 66.817C68.5503 66.817 69.1103 66.969 69.5663 67.273C70.0223 67.569 70.3623 67.965 70.5863 68.461C70.8103 68.957 70.9223 69.501 70.9223 70.093C70.9223 70.685 70.8103 71.233 70.5863 71.737C70.3623 72.233 70.0223 72.633 69.5663 72.937C69.1103 73.241 68.5503 73.393 67.8863 73.393ZM67.8863 72.049C68.3503 72.049 68.6983 71.865 68.9303 71.497C69.1703 71.121 69.2903 70.653 69.2903 70.093C69.2903 69.533 69.1703 69.073 68.9303 68.713C68.6983 68.345 68.3503 68.161 67.8863 68.161C67.4223 68.161 67.0743 68.345 66.8423 68.713C66.6103 69.073 66.4943 69.533 66.4943 70.093C66.4943 70.653 66.6103 71.121 66.8423 71.497C67.0823 71.865 67.4303 72.049 67.8863 72.049ZM71.8573 66.961H73.5373V67.933H73.6213C73.7653 67.621 73.9973 67.357 74.3173 67.141C74.6373 66.917 75.0253 66.805 75.4813 66.805C76.3053 66.805 76.8853 67.069 77.2213 67.597C77.5653 68.125 77.7373 68.725 77.7373 69.397V73.297H76.0813V69.673C76.0813 69.209 75.9693 68.845 75.7453 68.581C75.5293 68.317 75.2213 68.185 74.8213 68.185C74.3973 68.185 74.0773 68.325 73.8613 68.605C73.6453 68.877 73.5373 69.233 73.5373 69.673V73.297H71.8573V66.961ZM81.3499 64.885H84.6139C85.3579 64.885 86.0139 65.053 86.5819 65.389C87.1499 65.717 87.5899 66.197 87.9019 66.829C88.2219 67.461 88.3819 68.213 88.3819 69.085C88.3819 69.957 88.2219 70.709 87.9019 71.341C87.5819 71.973 87.1339 72.457 86.5579 72.793C85.9899 73.121 85.3339 73.285 84.5899 73.285H81.3499V64.885ZM84.2899 71.797C85.0019 71.797 85.5659 71.585 85.9819 71.161C86.3979 70.737 86.6059 70.041 86.6059 69.073C86.6059 68.105 86.3979 67.413 85.9819 66.997C85.5659 66.573 85.0019 66.361 84.2899 66.361H82.9699V71.797H84.2899ZM92.0865 73.393C91.4225 73.393 90.8625 73.245 90.4065 72.949C89.9585 72.645 89.6225 72.245 89.3985 71.749C89.1745 71.253 89.0625 70.709 89.0625 70.117C89.0625 69.525 89.1705 68.981 89.3865 68.485C89.6105 67.981 89.9505 67.577 90.4065 67.273C90.8625 66.969 91.4225 66.817 92.0865 66.817C92.7505 66.817 93.3105 66.969 93.7665 67.273C94.2225 67.569 94.5625 67.965 94.7865 68.461C95.0105 68.957 95.1225 69.501 95.1225 70.093C95.1225 70.685 95.0105 71.233 94.7865 71.737C94.5625 72.233 94.2225 72.633 93.7665 72.937C93.3105 73.241 92.7505 73.393 92.0865 73.393ZM92.0865 72.049C92.5505 72.049 92.8985 71.865 93.1305 71.497C93.3705 71.121 93.4905 70.653 93.4905 70.093C93.4905 69.533 93.3705 69.073 93.1305 68.713C92.8985 68.345 92.5505 68.161 92.0865 68.161C91.6225 68.161 91.2745 68.345 91.0425 68.713C90.8105 69.073 90.6945 69.533 90.6945 70.093C90.6945 70.653 90.8105 71.121 91.0425 71.497C91.2825 71.865 91.6305 72.049 92.0865 72.049ZM98.0854 73.345C97.4934 73.345 97.0534 73.257 96.7654 73.081C96.4854 72.897 96.3094 72.673 96.2374 72.409C96.1734 72.137 96.1414 71.793 96.1414 71.377V64.297H97.7974V71.041C97.7974 71.329 97.8094 71.545 97.8334 71.689C97.8654 71.825 97.9454 71.937 98.0734 72.025C98.2094 72.105 98.4214 72.145 98.7094 72.145C98.8054 72.145 98.9174 72.137 99.0454 72.121V73.273C98.6374 73.321 98.3174 73.345 98.0854 73.345ZM101.935 73.345C101.343 73.345 100.903 73.257 100.615 73.081C100.335 72.897 100.159 72.673 100.087 72.409C100.023 72.137 99.9913 71.793 99.9913 71.377V64.297H101.647V71.041C101.647 71.329 101.659 71.545 101.683 71.689C101.715 71.825 101.795 71.937 101.923 72.025C102.059 72.105 102.271 72.145 102.559 72.145C102.655 72.145 102.767 72.137 102.895 72.121V73.273C102.487 73.321 102.167 73.345 101.935 73.345ZM106.001 73.393C105.217 73.393 104.605 73.093 104.165 72.493C103.725 71.893 103.505 71.101 103.505 70.117C103.505 69.117 103.725 68.317 104.165 67.717C104.613 67.109 105.237 66.805 106.037 66.805C106.573 66.805 106.993 66.929 107.297 67.177C107.601 67.417 107.817 67.673 107.945 67.945H108.041V66.961H109.709V73.297H108.041V72.205H107.945C107.801 72.501 107.577 72.773 107.273 73.021C106.969 73.269 106.545 73.393 106.001 73.393ZM106.613 72.049C107.085 72.049 107.441 71.857 107.681 71.473C107.921 71.089 108.041 70.629 108.041 70.093C108.041 69.557 107.921 69.101 107.681 68.725C107.449 68.349 107.093 68.161 106.613 68.161C106.133 68.161 105.777 68.349 105.545 68.725C105.313 69.101 105.197 69.557 105.197 70.093C105.197 70.637 105.313 71.101 105.545 71.485C105.777 71.861 106.133 72.049 106.613 72.049ZM110.971 66.961H112.615V67.969H112.699C112.803 67.689 112.995 67.453 113.275 67.261C113.555 67.061 113.915 66.961 114.355 66.961C114.523 66.961 114.667 66.977 114.787 67.009L114.715 68.533C114.515 68.477 114.303 68.449 114.079 68.449C113.583 68.449 113.215 68.581 112.975 68.845C112.735 69.101 112.615 69.529 112.615 70.129V73.297H110.971V66.961ZM117.298 64.897H118.966L120.418 71.125H120.49L122.41 64.897H123.862L125.782 71.125H125.854L127.318 64.897H128.986L126.826 73.309H124.822L123.178 67.873H123.106L121.462 73.309H119.458L117.298 64.897ZM129.797 64.381H131.477V67.933H131.561C131.705 67.621 131.937 67.357 132.257 67.141C132.577 66.917 132.965 66.805 133.421 66.805C134.245 66.805 134.825 67.069 135.161 67.597C135.505 68.125 135.677 68.725 135.677 69.397V73.297H134.021V69.673C134.021 69.209 133.909 68.845 133.685 68.581C133.469 68.317 133.157 68.185 132.749 68.185C132.349 68.185 132.037 68.321 131.813 68.593C131.589 68.865 131.477 69.225 131.477 69.673V73.297H129.797V64.381ZM139.032 73.393C138.248 73.393 137.636 73.093 137.196 72.493C136.756 71.893 136.536 71.101 136.536 70.117C136.536 69.117 136.756 68.317 137.196 67.717C137.644 67.109 138.268 66.805 139.068 66.805C139.604 66.805 140.024 66.929 140.328 67.177C140.632 67.417 140.848 67.673 140.976 67.945H141.072V66.961H142.74V73.297H141.072V72.205H140.976C140.832 72.501 140.608 72.773 140.304 73.021C140 73.269 139.576 73.393 139.032 73.393ZM139.644 72.049C140.116 72.049 140.472 71.857 140.712 71.473C140.952 71.089 141.072 70.629 141.072 70.093C141.072 69.557 140.952 69.101 140.712 68.725C140.48 68.349 140.124 68.161 139.644 68.161C139.164 68.161 138.808 68.349 138.576 68.725C138.344 69.101 138.228 69.557 138.228 70.093C138.228 70.637 138.344 71.101 138.576 71.485C138.808 71.861 139.164 72.049 139.644 72.049ZM145.982 73.345C145.39 73.345 144.95 73.257 144.662 73.081C144.382 72.897 144.206 72.673 144.134 72.409C144.07 72.137 144.038 71.793 144.038 71.377V64.297H145.694V71.041C145.694 71.329 145.706 71.545 145.73 71.689C145.762 71.825 145.842 71.937 145.97 72.025C146.106 72.105 146.318 72.145 146.606 72.145C146.702 72.145 146.814 72.137 146.942 72.121V73.273C146.534 73.321 146.214 73.345 145.982 73.345ZM150.636 73.393C149.972 73.393 149.412 73.241 148.956 72.937C148.5 72.625 148.16 72.221 147.936 71.725C147.72 71.221 147.612 70.681 147.612 70.105C147.612 69.529 147.72 68.993 147.936 68.497C148.16 67.993 148.5 67.585 148.956 67.273C149.412 66.961 149.976 66.805 150.648 66.805C151.536 66.805 152.24 67.089 152.76 67.657C153.288 68.225 153.552 69.045 153.552 70.117V70.573H149.208V70.669C149.208 71.053 149.34 71.385 149.604 71.665C149.868 71.937 150.2 72.073 150.6 72.073C150.912 72.073 151.176 72.001 151.392 71.857C151.608 71.713 151.764 71.517 151.86 71.269H153.492C153.324 71.893 152.996 72.405 152.508 72.805C152.02 73.197 151.396 73.393 150.636 73.393ZM151.956 69.493C151.94 68.989 151.812 68.617 151.572 68.377C151.332 68.137 151.016 68.017 150.624 68.017C150.208 68.017 149.88 68.149 149.64 68.413C149.4 68.677 149.272 69.037 149.256 69.493H151.956Z" fill="#202020"/>
</svg>
