<svg width="206" height="120" viewBox="0 0 206 120" fill="none" xmlns="http://www.w3.org/2000/svg">
<path d="M103 120C159.885 120 206 115.549 206 110.059C206 104.568 159.885 100.117 103 100.117C46.1147 100.117 0 104.568 0 110.059C0 115.549 46.1147 120 103 120Z" fill="#493B3B"/>
<path d="M72.4169 15.4097H45.7954V10.6104C45.7954 7.5937 48.0773 5.12549 50.8662 5.12549H67.3462C70.1351 5.12549 72.4169 7.5937 72.4169 10.6104V15.4097Z" fill="#C1A7A7"/>
<path d="M72.4169 15.4097H45.7954V10.6104C45.7954 7.5937 48.0773 5.12549 50.8662 5.12549H67.3462C70.1351 5.12549 72.4169 7.5937 72.4169 10.6104V15.4097Z" stroke="#493B3B" stroke-width="6" stroke-miterlimit="10" stroke-linecap="round" stroke-linejoin="round"/>
<path d="M70.9274 6.25659V15.4095" stroke="#493B3B" stroke-width="4" stroke-miterlimit="10" stroke-linecap="round" stroke-linejoin="round"/>
<path d="M68.0751 6.25659V15.4095" stroke="#493B3B" stroke-width="4" stroke-miterlimit="10" stroke-linecap="round" stroke-linejoin="round"/>
<path d="M65.2228 6.25659V15.4095" stroke="#493B3B" stroke-width="4" stroke-miterlimit="10" stroke-linecap="round" stroke-linejoin="round"/>
<path d="M62.3705 6.25659V15.4095" stroke="#493B3B" stroke-width="4" stroke-miterlimit="10" stroke-linecap="round" stroke-linejoin="round"/>
<path d="M59.5182 6.25659V15.4095" stroke="#493B3B" stroke-width="4" stroke-miterlimit="10" stroke-linecap="round" stroke-linejoin="round"/>
<path d="M56.6659 6.25659V15.4095" stroke="#493B3B" stroke-width="4" stroke-miterlimit="10" stroke-linecap="round" stroke-linejoin="round"/>
<path d="M53.8135 6.25659V15.4095" stroke="#493B3B" stroke-width="4" stroke-miterlimit="10" stroke-linecap="round" stroke-linejoin="round"/>
<path d="M50.9612 6.25659V15.4095" stroke="#493B3B" stroke-width="4" stroke-miterlimit="10" stroke-linecap="round" stroke-linejoin="round"/>
<path d="M48.1089 6.25659V15.4095" stroke="#493B3B" stroke-width="4" stroke-miterlimit="10" stroke-linecap="round" stroke-linejoin="round"/>
<path d="M180.614 3.10303H78.5651C75.7445 3.10303 73.1457 4.57709 71.4343 6.97674C67.8531 12.1188 62.1485 15.4441 55.7467 15.4441H18.3497V101.831C18.3497 106.391 21.7408 110.059 25.9559 110.059H180.614C184.829 110.059 188.22 106.391 188.22 101.831V11.3304C188.22 6.77106 184.798 3.10303 180.614 3.10303Z" fill="#E2A86D"/>
<path d="M27.5405 30.4246H18.3497V100.391H27.5405V30.4246Z" fill="#D6975F"/>
<path d="M188.221 30.4246H179.03V100.391H188.221V30.4246Z" fill="#D6975F"/>
<mask id="mask0" mask-type="alpha" maskUnits="userSpaceOnUse" x="18" y="30" width="171" height="71">
<path d="M188.22 30.356H18.3497V100.426H188.22V30.356Z" fill="#E2A86D"/>
</mask>
<g mask="url(#mask0)">
<path d="M33.3719 23.3628C51.1196 34.7097 59.2962 56.8207 53.8135 75.8122C47.3483 98.2661 25.1636 104.779 23.8643 105.122" stroke="#CC894C" stroke-width="6" stroke-miterlimit="10" stroke-linecap="round" stroke-linejoin="round"/>
<path d="M39.6787 80.9543C32.0726 89.8673 18.0329 93.4325 5.32428 86.6107" stroke="#CC894C" stroke-width="6" stroke-miterlimit="10" stroke-linecap="round" stroke-linejoin="round"/>
<path d="M9.60272 33.1328C28.84 34.8811 43.1966 47.0851 45.2566 61.4144C45.3516 62.1686 46.239 68.819 43.5452 75.7094" stroke="#CC894C" stroke-width="6" stroke-miterlimit="10" stroke-linecap="round" stroke-linejoin="round"/>
<path d="M6.27502 53.7013C13.8812 47.8735 20.9803 47.2565 27.5723 50.7188C32.1993 53.1871 37.9356 59.289 37.2701 63.9855C36.1292 72.2128 23.1353 81.88 11.9479 81.4686" stroke="#CC894C" stroke-width="6" stroke-miterlimit="10" stroke-linecap="round" stroke-linejoin="round"/>
<path d="M23.8643 54.4211C24.7517 55.1753 29.5689 58.1235 28.4914 64.6025C28.1427 66.7279 23.167 74.2354 14.832 72.727" stroke="#CC894C" stroke-width="6" stroke-miterlimit="10" stroke-linecap="round" stroke-linejoin="round"/>
<path d="M10.0781 62.4428C14.42 58.9805 20.9803 55.6895 23.8643 60.9345" stroke="#CC894C" stroke-width="6" stroke-miterlimit="10" stroke-linecap="round" stroke-linejoin="round"/>
<path d="M10.0781 99.9803C13.184 100.255 31.2803 101.489 42.8797 87.6392C45.8904 84.0398 47.8237 80.2003 49.0597 76.8408" stroke="#CC894C" stroke-width="6" stroke-miterlimit="10" stroke-linecap="round" stroke-linejoin="round"/>
<path d="M51.4366 23.3629C53.6867 29.0878 59.5815 41.6002 71.8781 47.5308C90.3864 56.478 116.342 47.1194 132.727 22.3345" stroke="#CC894C" stroke-width="6" stroke-miterlimit="10" stroke-linecap="round" stroke-linejoin="round"/>
<path d="M66.6489 23.877C66.8707 25.7281 67.7898 31.4873 72.3535 36.218C78.5018 42.5942 86.3298 41.9772 87.5658 41.8743" stroke="#CC894C" stroke-width="6" stroke-miterlimit="10" stroke-linecap="round" stroke-linejoin="round"/>
<path d="M70.3885 87.2965C65.9516 84.1769 59.2962 79.1034 59.2962 64.6369C59.2962 59.8719 60.659 57.198 61.7049 56.581C65.3495 54.4556 77.0122 68.6135 91.8442 72.7272C103.38 75.9496 122.554 68.2021 149.714 43.3486" stroke="#CC894C" stroke-width="6" stroke-miterlimit="10" stroke-linecap="round" stroke-linejoin="round"/>
<path d="M158.842 25.9338C148.89 27.3051 129.083 31.7958 116.533 49.0733C115.835 49.9989 108.293 60.4888 110.353 62.957C111.715 64.5682 122.047 47.1193 141.601 39.3376C146.323 37.4522 150.443 36.5951 153.296 36.1495" stroke="#CC894C" stroke-width="6" stroke-miterlimit="10" stroke-linecap="round" stroke-linejoin="round"/>
<path d="M40.0274 114.892C42.3409 102.825 49.3449 94.6666 56.6659 94.3238C56.9194 94.3238 63.0043 94.1181 65.6982 98.4375C68.9308 103.648 66.2369 113.864 57.1413 122.091" stroke="#CC894C" stroke-width="6" stroke-miterlimit="10" stroke-linecap="round" stroke-linejoin="round"/>
<path d="M55.4932 88.4963C64.1452 87.5364 71.8781 92.2672 75.8713 99.7746C80.9738 109.27 80.1181 120.754 70.8957 128.262" stroke="#CC894C" stroke-width="6" stroke-miterlimit="10" stroke-linecap="round" stroke-linejoin="round"/>
<path d="M158.176 45.8167C156.813 47.4964 149.936 53.1184 147.242 54.7639C133.234 63.3341 131.301 58.7405 117.452 75.7094C109.972 84.8624 103.475 107.213 92.2879 122.605" stroke="#CC894C" stroke-width="6" stroke-miterlimit="10" stroke-linecap="round" stroke-linejoin="round"/>
<path d="M173.23 12.6672C172.977 21.6488 168.571 31.4873 162.074 40.6746" stroke="#CC894C" stroke-width="6" stroke-miterlimit="10" stroke-linecap="round" stroke-linejoin="round"/>
<path d="M196.873 33.647C193.925 34.0926 176.621 37.1093 166.923 53.7012C165.687 55.7923 161.567 63.0598 161.219 72.727C160.617 89.4217 171.645 105.979 188.791 115.406" stroke="#CC894C" stroke-width="6" stroke-miterlimit="10" stroke-linecap="round" stroke-linejoin="round"/>
<path d="M173.991 83.7312C176.78 94.3925 186.826 103.066 199.249 106.185" stroke="#CC894C" stroke-width="6" stroke-miterlimit="10" stroke-linecap="round" stroke-linejoin="round"/>
<path d="M197.348 53.187C187.143 55.2439 176.589 62.2714 174.086 71.4586C173.547 73.4126 173.262 75.3666 173.23 77.2863" stroke="#CC894C" stroke-width="6" stroke-miterlimit="10" stroke-linecap="round" stroke-linejoin="round"/>
<path d="M125.09 122.606C129.051 97.9577 141.76 85.7881 148.605 80.9202C155.641 75.9495 163.247 78.0063 156.433 91.7529C151.616 101.489 156.718 115.407 145.975 124.148" stroke="#CC894C" stroke-width="6" stroke-miterlimit="10" stroke-linecap="round" stroke-linejoin="round"/>
<path d="M200.676 63.9854C188.886 65.8708 182.041 72.7269 182.611 77.3548C183.086 81.16 188.696 84.3824 195.446 85.5822" stroke="#CC894C" stroke-width="6" stroke-miterlimit="10" stroke-linecap="round" stroke-linejoin="round"/>
<path d="M151.236 71.6986C152.63 65.7337 156.275 53.7012 165.973 42.3886C176.748 29.8076 189.013 25.0768 194.496 23.3628" stroke="#CC894C" stroke-width="6" stroke-miterlimit="10" stroke-linecap="round" stroke-linejoin="round"/>
<path d="M142.52 101.729C141.918 95.5581 144.327 90.8273 147.369 90.0732C147.908 89.936 151.236 89.6275 151.236 94.3239" stroke="#CC894C" stroke-width="6" stroke-miterlimit="10" stroke-linecap="round" stroke-linejoin="round"/>
</g>
<path d="M68.1701 94.701L84.1114 87.0907L77.9631 72.0415L62.0218 79.6518C58.1871 81.503 56.444 86.3365 58.1237 90.4845C59.835 94.6668 64.3354 96.5179 68.1701 94.701Z" fill="#E5D6D6"/>
<path d="M68.1701 94.701L84.1114 87.0907L77.9631 72.0415L62.0218 79.6518C58.1871 81.503 56.444 86.3365 58.1237 90.4845C59.835 94.6668 64.3354 96.5179 68.1701 94.701Z" stroke="#493B3B" stroke-width="6" stroke-miterlimit="10" stroke-linecap="round" stroke-linejoin="round"/>
<path d="M65.096 92.0955C67.6165 92.0955 69.6597 89.8854 69.6597 87.1591C69.6597 84.4328 67.6165 82.2227 65.096 82.2227C62.5756 82.2227 60.5323 84.4328 60.5323 87.1591C60.5323 89.8854 62.5756 92.0955 65.096 92.0955Z" fill="#EFE6E6"/>
<path d="M65.096 92.0955C67.6165 92.0955 69.6597 89.8854 69.6597 87.1591C69.6597 84.4328 67.6165 82.2227 65.096 82.2227C62.5756 82.2227 60.5323 84.4328 60.5323 87.1591C60.5323 89.8854 62.5756 92.0955 65.096 92.0955Z" stroke="#493B3B" stroke-width="4" stroke-miterlimit="10" stroke-linecap="round" stroke-linejoin="round"/>
<path d="M18.3497 100.392V101.797C18.3497 106.356 21.7408 110.024 25.9559 110.024H180.614C184.829 110.024 188.22 106.356 188.22 101.797V100.392H18.3497Z" fill="#E5D6D6"/>
<path opacity="0.2" d="M103.285 31.4187C83.4141 31.4187 67.3144 48.9018 67.3144 70.4301C67.3144 73.1726 67.568 75.8465 68.075 78.4518L62.0218 81.3314C58.1871 83.1826 56.444 88.0161 58.1237 92.1641C59.835 96.312 64.3037 98.1975 68.1384 96.3806L74.2234 93.4667C80.752 103.168 91.3372 109.442 103.254 109.442C123.125 109.442 139.224 91.9584 139.224 70.4301C139.256 48.9018 123.156 31.4187 103.285 31.4187Z" fill="#2D2D2D" stroke="#2D2D2D" stroke-width="8" stroke-miterlimit="10" stroke-linecap="round" stroke-linejoin="round"/>
<path d="M180.614 110.059H179.03V100.426H188.221V101.831C188.221 106.356 184.798 110.059 180.614 110.059Z" fill="#DBC8C8"/>
<path d="M25.9559 110.059H27.5405V100.426H18.3497V101.831C18.3497 106.356 21.7408 110.059 25.9559 110.059Z" fill="#DBC8C8"/>
<path d="M180.614 3H78.5651C75.7445 3 73.114 4.47407 71.4343 6.908C67.8531 12.0844 62.1485 15.4096 55.7467 15.4096H18.3497V30.4245H188.22V11.2616C188.22 6.70232 184.798 3 180.614 3Z" fill="#E5D6D6"/>
<path d="M27.5405 15.7524H18.3497V30.4246H27.5405V15.7524Z" fill="#DBC8C8"/>
<path d="M134.724 25.0081H28.5546C27.9842 25.0081 27.5088 24.4939 27.5088 23.8769C27.5088 23.2598 27.9842 22.7456 28.5546 22.7456H134.724C135.294 22.7456 135.77 23.2598 135.77 23.8769C135.77 24.4939 135.294 25.0081 134.724 25.0081Z" fill="#C1A7A7"/>
<path d="M180.583 3H178.998V30.4245H188.189V11.2274C188.189 6.70231 184.798 3 180.583 3Z" fill="#DBC8C8"/>
<path d="M103.285 103.648C123.151 103.648 139.256 86.1823 139.256 64.6369C139.256 43.0915 123.151 25.6255 103.285 25.6255C83.4191 25.6255 67.3145 43.0915 67.3145 64.6369C67.3145 86.1823 83.4191 103.648 103.285 103.648Z" fill="#E5D6D6"/>
<path d="M103.285 95.8323C119.213 95.8323 132.125 81.8656 132.125 64.6368C132.125 47.4081 119.213 33.4414 103.285 33.4414C87.3574 33.4414 74.4453 47.4081 74.4453 64.6368C74.4453 81.8656 87.3574 95.8323 103.285 95.8323Z" fill="#845B5B"/>
<path d="M103.285 40.2975C118.117 40.2975 130.382 52.4672 131.935 68.0649C132.062 66.9336 132.125 65.8024 132.125 64.6368C132.125 47.4279 119.195 33.4414 103.285 33.4414C87.3757 33.4414 74.4453 47.4279 74.4453 64.6368C74.4453 65.8024 74.5086 66.9336 74.6354 68.0649C76.1883 52.4672 88.4533 40.2975 103.285 40.2975Z" fill="#704848"/>
<path d="M180.614 3.10303H78.5651C75.7445 3.10303 73.1457 4.57709 71.4343 6.97674C67.8531 12.1188 62.1485 15.4441 55.7467 15.4441H18.3497V101.831C18.3497 106.391 21.7408 110.059 25.9559 110.059H180.614C184.829 110.059 188.22 106.391 188.22 101.831V11.3304C188.22 6.77106 184.798 3.10303 180.614 3.10303Z" stroke="#493B3B" stroke-width="6" stroke-miterlimit="10" stroke-linecap="round" stroke-linejoin="round"/>
<path d="M103.285 99.7744C121.226 99.7744 135.77 84.0428 135.77 64.6367C135.77 45.2307 121.226 29.499 103.285 29.499C85.3444 29.499 70.8006 45.2307 70.8006 64.6367C70.8006 84.0428 85.3444 99.7744 103.285 99.7744Z" stroke="#493B3B" stroke-width="3" stroke-miterlimit="10" stroke-linecap="round" stroke-linejoin="round"/>
<path d="M103.285 95.8323C119.213 95.8323 132.125 81.8656 132.125 64.6368C132.125 47.4081 119.213 33.4414 103.285 33.4414C87.3574 33.4414 74.4453 47.4081 74.4453 64.6368C74.4453 81.8656 87.3574 95.8323 103.285 95.8323Z" stroke="#493B3B" stroke-width="8" stroke-miterlimit="10" stroke-linecap="round" stroke-linejoin="round"/>
<path d="M103.285 85.8909C114.137 85.8909 122.934 76.3751 122.934 64.6368C122.934 52.8986 114.137 43.3828 103.285 43.3828C92.4332 43.3828 83.636 52.8986 83.636 64.6368C83.636 76.3751 92.4332 85.8909 103.285 85.8909Z" fill="#B57F7F"/>
<path opacity="0.34" d="M116.818 64.6367C126.325 64.6367 131.555 76.635 125.47 84.5195C120.177 91.4099 112.191 95.8321 103.285 95.8321C94.3796 95.8321 86.3932 91.4442 81.1006 84.5195C75.0156 76.6007 80.2766 64.6367 89.7526 64.6367H116.818Z" fill="white"/>
<path d="M103.285 50.239C113.046 50.239 121.16 57.9864 122.681 68.0649C122.839 66.9336 122.934 65.8024 122.934 64.6368C122.934 52.9128 114.124 43.3828 103.285 43.3828C92.4464 43.3828 83.636 52.9128 83.636 64.6368C83.636 65.8024 83.7311 66.9336 83.8895 68.0649C85.4108 57.9521 93.524 50.239 103.285 50.239Z" fill="#AD6D6D"/>
<path d="M103.285 85.8909C114.137 85.8909 122.934 76.3751 122.934 64.6368C122.934 52.8986 114.137 43.3828 103.285 43.3828C92.4332 43.3828 83.636 52.8986 83.636 64.6368C83.636 76.3751 92.4332 85.8909 103.285 85.8909Z" stroke="#493B3B" stroke-width="6" stroke-miterlimit="10" stroke-linecap="round" stroke-linejoin="round"/>
<path d="M103.285 77.3203C109.761 77.3203 115.011 71.6416 115.011 64.6365C115.011 57.6314 109.761 51.9526 103.285 51.9526C96.8091 51.9526 91.5591 57.6314 91.5591 64.6365C91.5591 71.6416 96.8091 77.3203 103.285 77.3203Z" fill="#4C3535"/>
<path d="M103.285 77.3203C109.761 77.3203 115.011 71.6416 115.011 64.6365C115.011 57.6314 109.761 51.9526 103.285 51.9526C96.8091 51.9526 91.5591 57.6314 91.5591 64.6365C91.5591 71.6416 96.8091 77.3203 103.285 77.3203Z" stroke="#493B3B" stroke-width="3" stroke-miterlimit="10" stroke-linecap="round" stroke-linejoin="round"/>
<path d="M103.285 72.6925C107.398 72.6925 110.733 69.0857 110.733 64.6365C110.733 60.1873 107.398 56.5806 103.285 56.5806C99.172 56.5806 95.8375 60.1873 95.8375 64.6365C95.8375 69.0857 99.172 72.6925 103.285 72.6925Z" fill="#3F2E2E"/>
<path d="M42.2458 15.4097H25.6708V11.9816C25.6708 10.8504 26.5265 9.9248 27.5723 9.9248H40.3443C41.3902 9.9248 42.2458 10.8504 42.2458 11.9816V15.4097Z" fill="#6A4949"/>
<path d="M42.2458 15.4097H25.6708V11.9816C25.6708 10.8504 26.5265 9.9248 27.5723 9.9248H40.3443C41.3902 9.9248 42.2458 10.8504 42.2458 11.9816V15.4097Z" stroke="#493B3B" stroke-width="6" stroke-miterlimit="10" stroke-linecap="round" stroke-linejoin="round"/>
<path d="M39.6788 5.84521H28.2696V9.92461H39.6788V5.84521Z" stroke="#493B3B" stroke-width="6" stroke-miterlimit="10" stroke-linecap="round" stroke-linejoin="round"/>
<path d="M39.6788 5.84521H28.2696V9.92461H39.6788V5.84521Z" fill="#493B3B"/>
<path d="M103.285 103.648C123.151 103.648 139.256 86.1823 139.256 64.6369C139.256 43.0915 123.151 25.6255 103.285 25.6255C83.4191 25.6255 67.3145 43.0915 67.3145 64.6369C67.3145 86.1823 83.4191 103.648 103.285 103.648Z" stroke="#493B3B" stroke-width="8" stroke-miterlimit="10" stroke-linecap="round" stroke-linejoin="round"/>
<path opacity="0.38" d="M103.285 56.5806C99.1652 56.5806 95.8375 60.18 95.8375 64.6365C95.8375 64.6708 95.8375 64.6708 95.8375 64.7051C96.82 63.8138 98.2778 63.3339 100.211 63.5053C102.144 63.6767 102.493 64.328 104.648 65.0136C106.55 65.5964 108.99 65.3907 110.733 64.4651C110.638 60.0772 107.342 56.5806 103.285 56.5806Z" fill="white"/>
<path d="M103.285 90.6899C116.588 90.6899 127.371 79.0254 127.371 64.6366C127.371 50.2477 116.588 38.5833 103.285 38.5833C89.9828 38.5833 79.199 50.2477 79.199 64.6366C79.199 79.0254 89.9828 90.6899 103.285 90.6899Z" stroke="#493B3B" stroke-width="3" stroke-miterlimit="10" stroke-linecap="round" stroke-linejoin="round"/>
<path d="M103.285 95.8323C119.213 95.8323 132.125 81.8656 132.125 64.6368C132.125 47.4081 119.213 33.4414 103.285 33.4414C87.3574 33.4414 74.4453 47.4081 74.4453 64.6368C74.4453 81.8656 87.3574 95.8323 103.285 95.8323Z" stroke="#493B3B" stroke-width="8" stroke-miterlimit="10" stroke-linecap="round" stroke-linejoin="round"/>
<path d="M170.948 27.6822H143.788C141.728 27.6822 140.048 25.8653 140.048 23.637V11.913C140.048 9.68479 141.728 7.86792 143.788 7.86792H170.948C173.008 7.86792 174.688 9.68479 174.688 11.913V23.637C174.688 25.8653 173.008 27.6822 170.948 27.6822Z" fill="#443636"/>
<path d="M170.948 27.6822H143.788C141.728 27.6822 140.048 25.8653 140.048 23.637V11.913C140.048 9.68479 141.728 7.86792 143.788 7.86792H170.948C173.008 7.86792 174.688 9.68479 174.688 11.913V23.637C174.688 25.8653 173.008 27.6822 170.948 27.6822Z" stroke="#493B3B" stroke-width="4" stroke-miterlimit="10" stroke-linecap="round" stroke-linejoin="round"/>
<path d="M168.571 25.6254H146.165C144.422 25.6254 142.996 24.0827 142.996 22.1973V13.3529C142.996 11.4674 144.422 9.9248 146.165 9.9248H168.571C170.315 9.9248 171.741 11.4674 171.741 13.3529V22.1973C171.741 24.117 170.315 25.6254 168.571 25.6254Z" fill="#845B5B"/>
<path opacity="0.38" d="M163.089 25.6254L171.709 12.8729C171.487 11.2275 170.188 9.9248 168.571 9.9248H167.557L156.972 25.6254H163.089Z" fill="white"/>
<path opacity="0.38" d="M154.658 25.6254L165.244 9.9248H163.374L152.789 25.6254H154.658Z" fill="white"/>
</svg>
