<svg width="234" height="157" viewBox="0 0 234 157" fill="none" xmlns="http://www.w3.org/2000/svg">
<path d="M104.569 123.735C108.113 124.994 110.476 128.022 110.476 131.445V131.877C110.476 136.44 107.719 140.57 103.387 142.93C98.9235 145.369 95.6852 148.909 94.4599 153H140.628C139.402 148.909 136.164 145.369 131.7 142.93C127.368 140.57 124.611 136.44 124.611 131.877V131.445C124.611 128.022 126.974 124.994 130.519 123.735C147.148 117.874 159.97 101.117 163.339 80.2307H71.7481C75.1614 101.117 87.9396 117.874 104.569 123.735Z" stroke="#622F2F" stroke-width="8" stroke-miterlimit="10" stroke-linecap="round" stroke-linejoin="round"/>
<path d="M151.787 78.618L144.435 75.0779L176.074 21.622C177.168 19.8126 179.662 19.1046 181.719 20.0879C183.732 21.0713 184.52 23.3134 183.426 25.1621L151.787 78.618Z" fill="#F37443"/>
<path d="M156.469 70.5543L145.135 73.6618" stroke="#F04B4B" stroke-width="4" stroke-miterlimit="10" stroke-linecap="round" stroke-linejoin="round"/>
<path d="M161.151 62.6088L149.817 65.7162" stroke="#F04B4B" stroke-width="4" stroke-miterlimit="10" stroke-linecap="round" stroke-linejoin="round"/>
<path d="M165.878 54.7025L154.544 57.81" stroke="#F04B4B" stroke-width="4" stroke-miterlimit="10" stroke-linecap="round" stroke-linejoin="round"/>
<path d="M170.56 46.7568L159.226 49.8643" stroke="#F04B4B" stroke-width="4" stroke-miterlimit="10" stroke-linecap="round" stroke-linejoin="round"/>
<path d="M175.242 38.8113L163.908 41.9187" stroke="#F04B4B" stroke-width="4" stroke-miterlimit="10" stroke-linecap="round" stroke-linejoin="round"/>
<path d="M179.969 30.8656L168.634 33.973" stroke="#F04B4B" stroke-width="4" stroke-miterlimit="10" stroke-linecap="round" stroke-linejoin="round"/>
<path d="M159.532 64.6542L148.198 67.7616" stroke="#FFFDEB" stroke-width="2" stroke-miterlimit="10" stroke-linecap="round" stroke-linejoin="round"/>
<path d="M164.215 56.7086L152.881 59.8161" stroke="#FFFDEB" stroke-width="2" stroke-miterlimit="10" stroke-linecap="round" stroke-linejoin="round"/>
<path d="M168.941 48.8024L157.607 51.9098" stroke="#FFFDEB" stroke-width="2" stroke-miterlimit="10" stroke-linecap="round" stroke-linejoin="round"/>
<path d="M173.623 40.8566L162.289 43.964" stroke="#FFFDEB" stroke-width="2" stroke-miterlimit="10" stroke-linecap="round" stroke-linejoin="round"/>
<path d="M178.306 32.9111L166.972 36.0186" stroke="#FFFDEB" stroke-width="2" stroke-miterlimit="10" stroke-linecap="round" stroke-linejoin="round"/>
<path d="M183.032 24.9655L171.698 28.0729" stroke="#FFFDEB" stroke-width="2" stroke-miterlimit="10" stroke-linecap="round" stroke-linejoin="round"/>
<path d="M151.787 78.618L144.435 75.0779L176.074 21.622C177.168 19.8126 179.662 19.1046 181.719 20.0879C183.732 21.0713 184.52 23.3134 183.426 25.1621L151.787 78.618Z" stroke="#622F2F" stroke-width="8" stroke-miterlimit="10" stroke-linecap="round" stroke-linejoin="round"/>
<path d="M158.526 67.1716L147.192 70.2791" stroke="#622F2F" stroke-width="8" stroke-miterlimit="10" stroke-linecap="round" stroke-linejoin="round"/>
<path d="M163.252 59.2653L151.918 62.3727" stroke="#622F2F" stroke-width="8" stroke-miterlimit="10" stroke-linecap="round" stroke-linejoin="round"/>
<path d="M167.934 51.3198L156.6 54.4273" stroke="#622F2F" stroke-width="8" stroke-miterlimit="10" stroke-linecap="round" stroke-linejoin="round"/>
<path d="M172.66 43.374L161.326 46.4815" stroke="#622F2F" stroke-width="8" stroke-miterlimit="10" stroke-linecap="round" stroke-linejoin="round"/>
<path d="M177.343 35.4285L166.009 38.5752" stroke="#622F2F" stroke-width="8" stroke-miterlimit="10" stroke-linecap="round" stroke-linejoin="round"/>
<path d="M182.025 27.5222L170.691 30.6297" stroke="#622F2F" stroke-width="8" stroke-miterlimit="10" stroke-linecap="round" stroke-linejoin="round"/>
<path d="M74.8552 69.3744C74.8114 68.4697 74.7676 67.5257 74.7676 66.621C74.7676 54.5452 79.4938 43.2168 88.1147 34.7599C96.1666 26.8536 106.669 22.4874 117.609 22.4874C128.55 22.4874 139.052 26.8536 147.104 34.7599C155.725 43.2168 160.451 54.5059 160.451 66.621C160.451 67.5257 160.407 68.4697 160.364 69.3744H74.8552Z" fill="#FFFDFD"/>
<path d="M74.8552 69.3744C74.8114 68.4697 74.7676 67.5257 74.7676 66.621C74.7676 54.5452 79.4938 43.2168 88.1147 34.7599C96.1666 26.8536 106.669 22.4874 117.609 22.4874C128.55 22.4874 139.052 26.8536 147.104 34.7599C155.725 43.2168 160.451 54.5059 160.451 66.621C160.451 67.5257 160.407 68.4697 160.364 69.3744H74.8552Z" stroke="#622F2F" stroke-width="8" stroke-miterlimit="10" stroke-linecap="round" stroke-linejoin="round"/>
<path d="M74.8552 69.3744C74.8114 68.4697 74.7676 67.5257 74.7676 66.621C74.7676 54.5452 79.4938 43.2168 88.1147 34.7599C96.1666 26.8536 106.669 22.4874 117.609 22.4874C128.55 22.4874 139.052 26.8536 147.104 34.7599C155.725 43.2168 160.451 54.5059 160.451 66.621C160.451 67.5257 160.407 68.4697 160.364 69.3744H74.8552Z" fill="#F37443"/>
<path d="M147.104 34.7597C139.052 26.8534 128.55 22.5266 117.609 22.5266C116.647 22.5266 115.728 22.5659 114.765 22.6446C124.699 23.3133 134.063 27.6008 141.415 34.7991C150.036 43.256 154.762 54.5451 154.762 66.6602C154.762 67.5649 154.719 68.5089 154.675 69.4136H160.32C160.364 68.5089 160.407 67.5649 160.407 66.6602C160.451 54.5451 155.725 43.2167 147.104 34.7597Z" fill="#EE562B"/>
<path d="M147.41 34.7599C139.358 26.8536 128.856 22.4874 117.916 22.4874C106.976 22.4874 96.473 26.8536 88.421 34.7599C83.2135 39.8734 79.45 46.0096 77.262 52.7752C80.5878 54.3486 84.3075 55.2139 88.2897 55.2139C93.7598 55.2139 98.7923 53.5619 102.862 50.7691C104.525 49.6284 106.888 49.6284 108.551 50.7691C112.621 53.5619 117.653 55.2139 123.123 55.2139C129.25 55.2139 134.895 53.1292 139.14 49.6677C141.109 48.0943 144.128 48.1337 145.923 49.9037C149.467 53.4832 154.281 55.9613 159.707 56.8267C157.869 48.4877 153.668 40.8961 147.41 34.7599Z" fill="#C5342F"/>
<path d="M147.104 34.7599C139.096 26.8929 128.681 22.5268 117.784 22.4874C116.822 22.4874 115.859 22.5268 114.94 22.6054C124.786 23.3135 134.151 27.5616 141.459 34.7599C147.192 40.3847 151.218 47.3076 153.274 54.8993C155.2 55.7646 157.213 56.3546 159.401 56.748C157.519 48.4484 153.318 40.8568 147.104 34.7599Z" fill="#C22B24"/>
<path d="M101.287 34.7599C107.719 28.4663 115.684 24.4148 124.174 23.0381C122.029 22.6841 119.797 22.4874 117.609 22.4874C106.669 22.4874 96.1666 26.8536 88.1147 34.7599C79.4938 43.2168 74.7676 54.5059 74.7676 66.621C74.7676 67.5257 74.8114 68.4697 74.8552 69.3744H88.0271C87.9834 68.4697 87.9396 67.5257 87.9396 66.621C87.9396 54.5452 92.6658 43.2168 101.287 34.7599Z" fill="#F06134"/>
<path d="M117.741 22.5266C106.844 22.5659 96.4729 26.9321 88.4647 34.7991C83.2572 39.9126 79.4938 46.0488 77.3057 52.8144C80.6315 54.3877 84.3512 55.2531 88.3334 55.2531C88.6835 55.2531 89.0774 55.2531 89.4275 55.2138C91.4405 47.5435 95.5102 40.5026 101.33 34.7991C107.763 28.5055 115.728 24.454 124.217 23.0773C122.073 22.6839 119.929 22.5266 117.741 22.5266Z" fill="#C22B24"/>
<path d="M74.8552 69.3744C74.8114 68.4697 74.7676 67.5257 74.7676 66.621C74.7676 54.5452 79.4938 43.2168 88.1147 34.7599C96.1666 26.8536 106.669 22.4874 117.609 22.4874C128.55 22.4874 139.052 26.8536 147.104 34.7599C155.725 43.2168 160.451 54.5059 160.451 66.621C160.451 67.5257 160.407 68.4697 160.364 69.3744H74.8552Z" stroke="#622F2F" stroke-width="8" stroke-miterlimit="10" stroke-linecap="round" stroke-linejoin="round"/>
<path d="M66.1905 68.6665C66.1905 69.1385 66.1905 68.9418 66.1905 69.0599C66.1905 72.836 66.4968 76.6121 67.0219 80.2309H168.197C168.722 76.6515 169.028 72.8753 169.028 69.0599C169.028 68.9418 169.028 69.1385 169.028 68.6665H66.1905Z" fill="#F99F38"/>
<path d="M157.563 68.6665H167.715C167.715 69.1385 167.715 68.9418 167.715 69.0599C167.715 72.836 167.497 76.6121 167.147 80.2309H157.607V68.6665H157.563Z" fill="#F67D20"/>
<path d="M80.7191 68.6665H66.1905C66.1905 69.1385 66.1905 68.9418 66.1905 69.0599C66.1905 72.836 66.4968 76.6121 67.0219 80.2309H80.7191V68.6665Z" fill="#F67D20"/>
<path opacity="0.4" d="M117.434 31.3375C123.38 31.3375 128.2 29.8406 128.2 27.9941C128.2 26.1475 123.38 24.6506 117.434 24.6506C111.489 24.6506 106.669 26.1475 106.669 27.9941C106.669 29.8406 111.489 31.3375 117.434 31.3375Z" fill="#931C1C"/>
<path d="M147.41 34.7599C139.358 26.8536 128.856 22.4874 117.916 22.4874C106.976 22.4874 96.473 26.8536 88.421 34.7599C83.2135 39.8734 79.45 46.0096 77.262 52.7752C80.5878 54.3486 84.3075 55.2139 88.2897 55.2139C93.7598 55.2139 98.7923 53.5619 102.862 50.7691C104.525 49.6284 106.888 49.6284 108.551 50.7691C112.621 53.5619 117.653 55.2139 123.123 55.2139C129.25 55.2139 134.895 53.1292 139.14 49.6677C141.109 48.0943 144.128 48.1337 145.923 49.9037C149.467 53.4832 154.281 55.9613 159.707 56.8267C157.869 48.4877 153.668 40.8961 147.41 34.7599Z" stroke="#622F2F" stroke-width="8" stroke-miterlimit="10" stroke-linecap="round" stroke-linejoin="round"/>
<path d="M104.569 123.735C108.113 124.994 110.476 128.022 110.476 131.445V131.877C110.476 136.44 107.719 140.57 103.387 142.93C98.9235 145.369 95.6852 148.909 94.4599 153H140.628C139.402 148.909 136.164 145.369 131.7 142.93C127.368 140.57 124.611 136.44 124.611 131.877V131.445C124.611 128.022 126.974 124.994 130.519 123.735C147.148 117.874 159.97 101.117 163.339 80.2307H71.7481C75.1614 101.117 87.9396 117.874 104.569 123.735Z" fill="#F99F38"/>
<path d="M130.65 123.735C147.279 117.874 160.101 101.117 163.471 80.2307H146.448C144.478 91.3231 136.339 99.6227 126.624 99.6227C116.909 99.6227 108.77 91.3231 106.8 80.2307H71.7481C75.1614 101.117 87.9396 117.874 104.569 123.735C108.113 124.994 110.476 128.022 110.476 131.445V131.877C110.476 136.44 107.719 140.57 103.387 142.93C98.9235 145.369 95.6852 148.909 94.4599 153H140.628C139.402 148.909 136.164 145.369 131.7 142.93C127.368 140.57 124.611 136.44 124.611 131.877V131.445C124.742 128.022 127.105 124.954 130.65 123.735Z" fill="#F7932F"/>
<path d="M130.65 123.735C147.279 117.874 160.101 101.117 163.471 80.2307H157.519C155.331 102.927 140.409 117.009 122.511 118.307C109.12 119.29 89.6463 102.888 87.502 80.2307H71.8357C75.249 101.117 88.0271 117.874 104.656 123.735C108.201 124.994 110.564 128.022 110.564 131.445V131.877C110.564 136.44 107.807 140.57 103.475 142.93C99.0111 145.369 95.7728 148.909 94.5475 153H109.382C111.22 148.044 115.947 145.762 120.979 145.762C126.011 145.762 132.532 148.044 134.37 153H140.715C139.49 148.909 136.252 145.369 131.788 142.93C127.456 140.57 124.699 136.44 124.699 131.877V131.445C124.742 128.022 127.105 124.954 130.65 123.735Z" fill="#F67D20"/>
<path opacity="0.3" d="M163.471 80.2307H71.7481V85.6589H163.471V80.2307Z" fill="#D8542B"/>
<path d="M104.569 123.735C108.113 124.994 110.476 128.022 110.476 131.445V131.877C110.476 136.44 107.719 140.57 103.387 142.93C98.9235 145.369 95.6852 148.909 94.4599 153H140.628C139.402 148.909 136.164 145.369 131.7 142.93C127.368 140.57 124.611 136.44 124.611 131.877V131.445C124.611 128.022 126.974 124.994 130.519 123.735C147.148 117.874 159.97 101.117 163.339 80.2307H71.7481C75.1614 101.117 87.9396 117.874 104.569 123.735Z" stroke="#622F2F" stroke-width="8" stroke-miterlimit="10" stroke-linecap="round" stroke-linejoin="round"/>
<path d="M118.572 28.3088C123.865 28.3088 128.156 24.3464 128.156 19.4585C128.156 14.5706 123.865 10.6082 118.572 10.6082C113.279 10.6082 108.989 14.5706 108.989 19.4585C108.989 24.3464 113.279 28.3088 118.572 28.3088Z" fill="#EE202E"/>
<path d="M118.572 28.3088C123.865 28.3088 128.156 24.3464 128.156 19.4585C128.156 14.5706 123.865 10.6082 118.572 10.6082C113.279 10.6082 108.989 14.5706 108.989 19.4585C108.989 24.3464 113.279 28.3088 118.572 28.3088Z" stroke="#622F2F" stroke-width="8" stroke-miterlimit="10" stroke-linecap="round" stroke-linejoin="round"/>
<path d="M119.447 14.4631L127.368 4.90479" stroke="#622F2F" stroke-width="8" stroke-miterlimit="10" stroke-linecap="round" stroke-linejoin="round"/>
<path d="M120.979 16.9018C120.454 17.4525 119.71 17.7672 118.878 17.7672C117.828 17.7672 116.953 17.2165 116.384 16.4298" stroke="white" stroke-width="3" stroke-miterlimit="10" stroke-linecap="round" stroke-linejoin="round"/>
<path d="M103.037 11.6702L106.669 12.4569" stroke="#622F2F" stroke-width="4" stroke-miterlimit="10" stroke-linecap="round" stroke-linejoin="round"/>
<path d="M105.575 6.79272L108.332 8.9168" stroke="#622F2F" stroke-width="4" stroke-miterlimit="10" stroke-linecap="round" stroke-linejoin="round"/>
<path d="M110.039 4L111.089 7.02878" stroke="#622F2F" stroke-width="4" stroke-miterlimit="10" stroke-linecap="round" stroke-linejoin="round"/>
<g opacity="0.6">
<path opacity="0.6" d="M3 59.8159H7.37608" stroke="#DF5E4C" stroke-width="6" stroke-miterlimit="10" stroke-linecap="round" stroke-linejoin="round"/>
<path opacity="0.6" d="M5.18799 57.8494V61.7828" stroke="#DF5E4C" stroke-width="6" stroke-miterlimit="10" stroke-linecap="round" stroke-linejoin="round"/>
</g>
<path d="M211.257 73.6617H215.633" stroke="#F7931E" stroke-width="6" stroke-miterlimit="10" stroke-linecap="round" stroke-linejoin="round"/>
<path d="M213.445 71.6949V75.6284" stroke="#F7931E" stroke-width="6" stroke-miterlimit="10" stroke-linecap="round" stroke-linejoin="round"/>
<path d="M187.233 90.6544H193.753" stroke="#DF5E4C" stroke-width="6" stroke-miterlimit="10" stroke-linecap="round" stroke-linejoin="round"/>
<path d="M190.515 87.7437V93.6045" stroke="#DF5E4C" stroke-width="6" stroke-miterlimit="10" stroke-linecap="round" stroke-linejoin="round"/>
<path d="M29.9129 109.889H34.289" stroke="#622F2F" stroke-width="5" stroke-miterlimit="10" stroke-linecap="round" stroke-linejoin="round"/>
<path d="M32.1009 107.922V111.856" stroke="#622F2F" stroke-width="5" stroke-miterlimit="10" stroke-linecap="round" stroke-linejoin="round"/>
<g opacity="0.3">
<path opacity="0.3" d="M160.101 116.615H164.477" stroke="#622F2F" stroke-width="4" stroke-miterlimit="10" stroke-linecap="round" stroke-linejoin="round"/>
<path opacity="0.3" d="M162.289 114.649V118.582" stroke="#622F2F" stroke-width="4" stroke-miterlimit="10" stroke-linecap="round" stroke-linejoin="round"/>
</g>
<path d="M34.639 78.3821H41.5969" stroke="#F7931E" stroke-width="8" stroke-miterlimit="10" stroke-linecap="round" stroke-linejoin="round"/>
<path d="M38.1399 75.2745V81.5288" stroke="#F7931E" stroke-width="8" stroke-miterlimit="10" stroke-linecap="round" stroke-linejoin="round"/>
<path opacity="0.6" d="M195.941 113.823C197.15 113.823 198.129 112.942 198.129 111.856C198.129 110.77 197.15 109.889 195.941 109.889C194.733 109.889 193.753 110.77 193.753 111.856C193.753 112.942 194.733 113.823 195.941 113.823Z" stroke="#622F2F" stroke-width="5" stroke-miterlimit="10" stroke-linecap="round" stroke-linejoin="round"/>
<path opacity="0.7" d="M53.6749 20.0487C54.835 20.0487 55.7754 19.2034 55.7754 18.1606C55.7754 17.1179 54.835 16.2726 53.6749 16.2726C52.5148 16.2726 51.5744 17.1179 51.5744 18.1606C51.5744 19.2034 52.5148 20.0487 53.6749 20.0487Z" stroke="#F7931E" stroke-width="4" stroke-miterlimit="10" stroke-linecap="round" stroke-linejoin="round"/>
<path opacity="0.3" d="M49.1676 96.0433C50.8835 96.0433 52.2746 94.7929 52.2746 93.2505C52.2746 91.7081 50.8835 90.4578 49.1676 90.4578C47.4516 90.4578 46.0605 91.7081 46.0605 93.2505C46.0605 94.7929 47.4516 96.0433 49.1676 96.0433Z" stroke="#F7931E" stroke-width="6" stroke-miterlimit="10" stroke-linecap="round" stroke-linejoin="round"/>
<path opacity="0.4" d="M230.556 81.5287C231.353 81.5287 232 80.9476 232 80.2307C232 79.5138 231.353 78.9326 230.556 78.9326C229.758 78.9326 229.112 79.5138 229.112 80.2307C229.112 80.9476 229.758 81.5287 230.556 81.5287Z" stroke="#F7931E" stroke-width="3" stroke-miterlimit="10" stroke-linecap="round" stroke-linejoin="round"/>
<path opacity="0.4" d="M80.7191 126.134C81.5167 126.134 82.1632 125.553 82.1632 124.836C82.1632 124.119 81.5167 123.538 80.7191 123.538C79.9215 123.538 79.275 124.119 79.275 124.836C79.275 125.553 79.9215 126.134 80.7191 126.134Z" stroke="#F7931E" stroke-width="3" stroke-miterlimit="10" stroke-linecap="round" stroke-linejoin="round"/>
<path d="M66.1905 68.6665C66.1905 69.1385 66.1905 68.9418 66.1905 69.0599C66.1905 72.836 66.4968 76.6121 67.0219 80.2309H168.197C168.722 76.6515 169.028 72.8753 169.028 69.0599C169.028 68.9418 169.028 69.1385 169.028 68.6665H66.1905Z" stroke="#622F2F" stroke-width="8" stroke-miterlimit="10" stroke-linecap="round" stroke-linejoin="round"/>
</svg>
