<svg width="458" height="209" viewBox="0 0 458 209" fill="none" xmlns="http://www.w3.org/2000/svg">
<path d="M134.423 3H364.96C368.058 3 371.029 4.36045 373.219 6.78204C375.409 9.20364 376.64 12.488 376.64 15.9127V184.093H122.746V15.9119C122.746 12.4879 123.976 9.20417 126.166 6.78283C128.356 4.36148 131.326 3.0008 134.423 3V3Z" fill="#D2DCE6"/>
<path d="M134.423 3H364.96C368.058 3 371.029 4.36045 373.219 6.78204C375.409 9.20364 376.64 12.488 376.64 15.9127V184.093H122.746V15.9119C122.746 12.4879 123.976 9.20417 126.166 6.78283C128.356 4.36148 131.326 3.0008 134.423 3V3Z" stroke="#283035" stroke-width="6" stroke-linecap="round" stroke-linejoin="round"/>
<path d="M357.53 163.179V24.3412L141.856 24.3412V163.179L357.53 163.179Z" fill="#FF5C5C"/>
<path opacity="0.3" d="M267.04 141.029H302.53" stroke="white" stroke-width="6" stroke-linecap="round" stroke-linejoin="round"/>
<g opacity="0.3">
<path opacity="0.3" d="M353.564 97.872C354.247 97.8245 354.924 98.0326 355.487 98.4628C356.05 98.893 356.466 99.5203 356.667 100.244V91.6001C355.917 91.3579 355.141 91.2329 354.36 91.2289H353.564C351.846 91.2289 350.988 92.1779 350.988 94.0758V95.0915C350.988 96.9228 351.846 97.872 353.564 97.872Z" fill="white"/>
<path opacity="0.3" d="M356.667 139.304C356.462 140.023 356.045 140.646 355.483 141.073C354.92 141.499 354.244 141.705 353.564 141.658C351.846 141.658 350.988 142.607 350.988 144.504V145.521C350.988 147.419 351.847 148.368 353.564 148.368H354.36C355.141 148.364 355.917 148.239 356.667 147.997V139.304Z" fill="white"/>
</g>
<path d="M357.53 163.179V24.3412L141.856 24.3412V163.179L357.53 163.179Z" stroke="#283035" stroke-width="6" stroke-linecap="round" stroke-linejoin="round"/>
<path d="M94.73 184.204H404.658C405.382 184.204 406.077 184.522 406.589 185.088C407.101 185.654 407.388 186.422 407.388 187.222V190.837C407.388 194.84 405.95 198.678 403.39 201.508C400.831 204.338 397.359 205.928 393.738 205.928H105.65C102.03 205.928 98.558 204.338 95.9981 201.508C93.4381 198.678 92 194.84 92 190.837V187.222C92 186.422 92.2876 185.654 92.7996 185.088C93.3116 184.522 94.006 184.204 94.73 184.204Z" fill="#E5E5E5"/>
<path d="M393.735 199.134H105.647C102.374 199.132 99.2108 197.828 96.7348 195.461C94.2588 193.094 92.6352 189.822 92.1604 186.241C92.0576 186.556 92.0034 186.888 92 187.222V190.837C92 194.84 93.4381 198.678 95.9981 201.508C98.558 204.338 102.03 205.928 105.65 205.928H393.738C397.359 205.928 400.831 204.338 403.39 201.508C405.95 198.678 407.388 194.84 407.388 190.837V187.222C407.385 186.888 407.331 186.556 407.228 186.241C406.753 189.823 405.129 193.096 402.652 195.463C400.174 197.83 397.01 199.133 393.735 199.134V199.134Z" fill="#CFD1D0"/>
<path d="M94.73 184.204H404.658C405.382 184.204 406.077 184.522 406.589 185.088C407.101 185.654 407.388 186.422 407.388 187.222V190.837C407.388 194.84 405.95 198.678 403.39 201.508C400.831 204.338 397.359 205.928 393.738 205.928H105.65C102.03 205.928 98.558 204.338 95.9981 201.508C93.4381 198.678 92 194.84 92 190.837V187.222C92 186.422 92.2876 185.654 92.7996 185.088C93.3116 184.522 94.006 184.204 94.73 184.204Z" stroke="#283035" stroke-width="6" stroke-linecap="round" stroke-linejoin="round"/>
<path d="M221.027 184.093H278.358C278.358 185.694 277.783 187.23 276.759 188.362C275.735 189.494 274.346 190.13 272.898 190.13H226.487C225.039 190.13 223.651 189.494 222.627 188.362C221.603 187.23 221.027 185.694 221.027 184.093Z" fill="#686B6D"/>
<path d="M221.027 184.093H278.358C278.358 185.694 277.783 187.23 276.759 188.362C275.735 189.494 274.346 190.13 272.898 190.13H226.487C225.039 190.13 223.651 189.494 222.627 188.362C221.603 187.23 221.027 185.694 221.027 184.093Z" stroke="#283035" stroke-width="4" stroke-linecap="round" stroke-linejoin="round"/>
<path d="M249.156 19.424C252.171 19.424 254.616 16.7214 254.616 13.3876C254.616 10.0538 252.171 7.3512 249.156 7.3512C246.14 7.3512 243.696 10.0538 243.696 13.3876C243.696 16.7214 246.14 19.424 249.156 19.424Z" fill="#686B6D"/>
<path d="M249.156 19.424C252.171 19.424 254.616 16.7214 254.616 13.3876C254.616 10.0538 252.171 7.3512 249.156 7.3512C246.14 7.3512 243.696 10.0538 243.696 13.3876C243.696 16.7214 246.14 19.424 249.156 19.424Z" stroke="#283035" stroke-width="4" stroke-linecap="round" stroke-linejoin="round"/>
<path d="M414.549 206C414.579 200.221 416.677 194.69 420.385 190.615C424.092 186.541 429.107 184.254 434.334 184.254C439.562 184.254 444.577 186.541 448.284 190.615C451.991 194.69 454.089 200.221 454.12 206H414.549Z" fill="#E5E5E5"/>
<path d="M434.335 199.091C437.164 199.12 439.967 198.48 442.554 197.213C445.141 195.946 447.453 194.081 449.334 191.744C447.478 189.355 445.176 187.437 442.587 186.122C439.999 184.807 437.183 184.126 434.334 184.126C431.485 184.126 428.67 184.807 426.081 186.122C423.492 187.437 421.191 189.355 419.335 191.744C421.216 194.081 423.528 195.946 426.115 197.213C428.703 198.48 431.505 199.121 434.335 199.091V199.091Z" fill="#CFD1D0"/>
<path d="M414.549 206C414.579 200.221 416.677 194.69 420.385 190.615C424.092 186.541 429.107 184.254 434.334 184.254C439.562 184.254 444.577 186.541 448.284 190.615C451.991 194.69 454.089 200.221 454.12 206H414.549Z" stroke="#283035" stroke-width="6" stroke-linecap="round" stroke-linejoin="round"/>
<g style="mix-blend-mode:multiply" opacity="0.14">
<path d="M282.049 51.2375H178.319C175.3 51.2375 172.853 53.9428 172.853 57.28V146.305C172.853 149.642 175.3 152.348 178.319 152.348H282.049C285.068 152.348 287.515 149.642 287.515 146.305V57.28C287.515 53.9428 285.068 51.2375 282.049 51.2375Z" fill="black"/>
</g>
<path d="M276.703 45.9557H172.973C169.954 45.9557 167.507 48.661 167.507 51.9981V141.023C167.507 144.36 169.954 147.066 172.973 147.066H276.703C279.722 147.066 282.169 144.36 282.169 141.023V51.9981C282.169 48.661 279.722 45.9557 276.703 45.9557Z" fill="#353F49"/>
<path d="M276.703 45.9557H172.973C169.954 45.9557 167.507 48.661 167.507 51.9981V141.023C167.507 144.36 169.954 147.066 172.973 147.066H276.703C279.722 147.066 282.169 144.36 282.169 141.023V51.9981C282.169 48.661 279.722 45.9557 276.703 45.9557Z" stroke="#283035" stroke-width="4" stroke-linecap="round" stroke-linejoin="round"/>
<path d="M172.972 45.9557H276.703C278.153 45.9557 279.543 46.5923 280.568 47.7255C281.593 48.8587 282.169 50.3956 282.169 51.9981V61.0467H167.507V51.9981C167.507 50.3957 168.083 48.8589 169.108 47.7257C170.132 46.5926 171.522 45.9559 172.972 45.9557Z" fill="#EAEEEF"/>
<path d="M172.972 45.9557H276.703C278.153 45.9557 279.543 46.5923 280.568 47.7255C281.593 48.8587 282.169 50.3956 282.169 51.9981V61.0467H167.507V51.9981C167.507 50.3957 168.083 48.8589 169.108 47.7257C170.132 46.5926 171.522 45.9559 172.972 45.9557Z" stroke="#283035" stroke-width="4" stroke-linecap="round" stroke-linejoin="round"/>
<path opacity="0.35" d="M177.289 55.8593C178.467 55.8593 179.422 54.8036 179.422 53.5013C179.422 52.199 178.467 51.1433 177.289 51.1433C176.111 51.1433 175.156 52.199 175.156 53.5013C175.156 54.8036 176.111 55.8593 177.289 55.8593Z" fill="#283035"/>
<path opacity="0.35" d="M184.001 55.8593C185.178 55.8593 186.133 54.8036 186.133 53.5013C186.133 52.199 185.178 51.1433 184.001 51.1433C182.823 51.1433 181.868 52.199 181.868 53.5013C181.868 54.8036 182.823 55.8593 184.001 55.8593Z" fill="#283035"/>
<path opacity="0.35" d="M190.371 55.8593C191.549 55.8593 192.504 54.8036 192.504 53.5013C192.504 52.199 191.549 51.1433 190.371 51.1433C189.193 51.1433 188.238 52.199 188.238 53.5013C188.238 54.8036 189.193 55.8593 190.371 55.8593Z" fill="#283035"/>
<path d="M172.853 66.3286H180.361" stroke="#46BB86" stroke-width="3" stroke-miterlimit="10"/>
<path d="M183.091 66.3286H203.566" stroke="#46BB86" stroke-width="3" stroke-miterlimit="10"/>
<path d="M172.853 72.3652H203.566" stroke="#389ABE" stroke-width="3" stroke-miterlimit="10"/>
<path d="M178.996 78.4015H194.011" stroke="#E5C689" stroke-width="3" stroke-miterlimit="10"/>
<path d="M196.741 78.4015H213.121" stroke="#F2F3F4" stroke-width="3" stroke-miterlimit="10"/>
<path d="M187.186 84.4379H218.581" stroke="#F2F3F4" stroke-width="3" stroke-miterlimit="10"/>
<path d="M187.186 90.4744H210.391" stroke="#FFA49F" stroke-width="3" stroke-miterlimit="10"/>
<path d="M178.996 96.5107H213.121" stroke="#F2F3F4" stroke-width="3" stroke-miterlimit="10"/>
<path d="M172.853 101.793H191.281" stroke="#389ABE" stroke-width="3" stroke-miterlimit="10"/>
<g opacity="0.3">
<path opacity="0.3" d="M331.63 131.025C331.63 128.043 330.587 125.942 328.502 124.654C327.031 123.773 326.418 123.094 326.418 121.536V118.895C326.418 117.065 327.154 116.659 328.441 115.709C330.587 114.693 331.63 112.525 331.63 109.271V103.509C331.63 98.9003 333.162 95.5109 335.369 94.0878C337.02 92.786 338.983 92.0547 341.009 91.9863H341.807C343.523 91.9863 344.381 92.9353 344.382 94.8333V95.8459C344.382 97.6757 343.523 98.6249 341.807 98.6249C339.418 98.6249 338.251 100.523 338.251 104.386V111.503C338.312 113.231 337.922 114.941 337.129 116.431C336.335 117.921 335.171 119.128 333.775 119.908L333.223 120.111V120.247C333.853 120.452 334.437 120.798 334.94 121.264C336.473 122.279 338.251 124.652 338.251 128.787V136.717C338.251 140.512 339.416 142.411 341.807 142.411C343.523 142.411 344.381 143.36 344.382 145.257V146.274C344.382 148.172 343.523 149.121 341.807 149.121H341.009C338.983 149.053 337.02 148.321 335.369 147.02C333.162 145.597 331.63 142.14 331.63 137.598V131.025Z" fill="white"/>
</g>
<path d="M43.1163 103.944L47.995 79.1897L73.6395 73" stroke="#283035" stroke-width="8" stroke-linecap="round" stroke-linejoin="round"/>
<path d="M25.8158 198.598H56.0537C57.1027 198.598 58.1157 198.188 58.9029 197.446C59.6901 196.703 60.1975 195.679 60.3302 194.564L68.407 126.698H13.4651L21.5425 194.564C21.675 195.678 22.1821 196.702 22.9686 197.445C23.7552 198.187 24.7674 198.597 25.8158 198.598Z" fill="#EAD57D"/>
<path d="M21.7436 126.698L28.0556 189.378C28.1855 190.667 28.7485 191.859 29.6367 192.725C30.5249 193.591 31.6759 194.07 32.8688 194.07H59.686L59.6284 194.564C59.4978 195.679 58.998 196.703 58.2226 197.446C57.4472 198.188 56.4495 198.598 55.4163 198.598H25.6336C24.6005 198.597 23.6029 198.188 22.8277 197.445C22.0525 196.703 21.5527 195.679 21.4221 194.564L13.4651 126.698H21.7436Z" fill="#E5C66E"/>
<path d="M25.8158 198.598H56.0537C57.1027 198.598 58.1157 198.188 58.9029 197.446C59.6901 196.703 60.1975 195.679 60.3302 194.564L68.407 126.698H13.4651L21.5425 194.564C21.675 195.678 22.1821 196.702 22.9686 197.445C23.7552 198.187 24.7674 198.597 25.8158 198.598V198.598Z" stroke="#283035" stroke-width="6" stroke-linecap="round" stroke-linejoin="round"/>
<path d="M66.257 178.575L70.1512 145.81H11.7209L15.6152 178.575H66.257Z" fill="#5CBF84"/>
<path d="M66.257 178.575L70.1512 145.81H11.7209L15.6152 178.575H66.257Z" fill="#4FB277"/>
<path d="M65.9661 174.934L69.2791 145.81H19.5698L22.6218 172.623C22.6944 173.26 22.9842 173.847 23.4365 174.273C23.8887 174.699 24.4721 174.934 25.0765 174.934H65.9661Z" fill="#5CBF84"/>
<path d="M66.257 178.575L70.1512 145.81H11.7209L15.6152 178.575H66.257Z" stroke="#283035" stroke-width="6" stroke-linecap="round" stroke-linejoin="round"/>
<path d="M9.72492 126.698L71.2751 126.698C74.9891 126.698 78 123.438 78 119.416C78 115.395 74.9891 112.135 71.2751 112.135L9.72492 112.135C6.01085 112.135 3 115.395 3 119.416C3 123.438 6.01085 126.698 9.72492 126.698Z" fill="#5CBF84"/>
<path d="M9.72492 126.698L71.2751 126.698C74.9891 126.698 78 123.438 78 119.416C78 115.395 74.9891 112.135 71.2751 112.135L9.72492 112.135C6.01085 112.135 3 115.395 3 119.416C3 123.438 6.01085 126.698 9.72492 126.698Z" fill="#4FB277"/>
<path d="M16.9691 123.057L72.7519 123.057C75.6503 123.057 78 120.612 78 117.596C78 114.58 75.6503 112.135 72.7519 112.135L16.9691 112.135C14.0706 112.135 11.7209 114.58 11.7209 117.596C11.7209 120.612 14.0706 123.057 16.9691 123.057Z" fill="#5CBF84"/>
<path d="M9.72492 126.698L71.2751 126.698C74.9891 126.698 78 123.438 78 119.416C78 115.395 74.9891 112.135 71.2751 112.135L9.72492 112.135C6.01085 112.135 3 115.395 3 119.416C3 123.438 6.01085 126.698 9.72492 126.698Z" stroke="#283035" stroke-width="6" stroke-linecap="round" stroke-linejoin="round"/>
<path d="M16.0814 112.135H64.9186L63.9523 103.944H17.0484L16.0814 112.135Z" fill="#5CBF84"/>
<path d="M17.0738 103.944H31.7791L28.2982 112.135H16.0814L17.0738 103.944Z" fill="#54AF79"/>
<path d="M16.0814 112.135H64.9186L63.9523 103.944H17.0484L16.0814 112.135Z" stroke="#283035" stroke-width="6" stroke-linecap="round" stroke-linejoin="round"/>
<path d="M23.0582 164.406L24.2876 163.103C28.9532 167.224 34.7766 169.474 40.7824 169.474C46.7882 169.474 52.6116 167.224 57.2771 163.103L58.814 164.74" stroke="#283035" stroke-width="3" stroke-linecap="round" stroke-linejoin="round"/>
<path d="M37.0117 157.762C37.0117 157.006 36.736 156.281 36.2454 155.746C35.7547 155.212 35.0893 154.912 34.3954 154.912V154.912C33.7015 154.912 33.0361 155.212 32.5454 155.746C32.0548 156.281 31.7791 157.006 31.7791 157.762V160.372" stroke="#283035" stroke-width="3" stroke-linecap="round" stroke-linejoin="round"/>
<path d="M44.8605 157.762C44.8605 157.006 45.1361 156.281 45.6268 155.746C46.1174 155.212 46.7829 154.912 47.4768 154.912V154.912C48.1706 154.912 48.8361 155.212 49.3267 155.746C49.8174 156.281 50.093 157.006 50.093 157.762V160.372" stroke="#283035" stroke-width="3" stroke-linecap="round" stroke-linejoin="round"/>
</svg>
